<?xml version="1.0" standalone="no"?>
<!DOCTYPE svg PUBLIC "-//W3C//DTD SVG 20010904//EN"
 "http://www.w3.org/TR/2001/REC-SVG-20010904/DTD/svg10.dtd">
<svg version="1.0" xmlns="http://www.w3.org/2000/svg"
 width="764.000000pt" height="217.000000pt" viewBox="0 0 764.000000 217.000000"
 preserveAspectRatio="xMidYMid meet">

<g transform="translate(0.000000,217.000000) scale(0.100000,-0.100000)"
fill="#841AA9" stroke="none">
<path d="M1066 1798 c-17 -16 -92 -195 -256 -608 -258 -649 -253 -632 -172
-638 l43 -3 28 63 c15 35 84 204 152 375 68 172 126 313 129 313 3 0 65 -159
139 -353 74 -193 140 -362 148 -374 10 -18 23 -23 53 -23 35 0 42 4 51 27 9
24 -10 79 -152 446 -89 231 -164 428 -166 438 -3 11 5 44 17 75 l23 56 202
-505 c111 -279 208 -513 215 -522 15 -18 71 -20 88 -3 21 21 13 59 -40 192
-28 72 -51 136 -51 142 0 22 157 404 164 397 4 -5 66 -163 139 -353 72 -190
138 -355 146 -367 10 -16 24 -23 47 -23 40 0 57 15 57 49 -1 15 -74 217 -164
451 l-164 425 20 50 c22 55 29 65 35 50 2 -5 94 -237 206 -515 l202 -505 38
-3 c44 -4 67 11 67 42 0 12 -105 284 -234 606 -250 624 -256 637 -309 613 -19
-9 -51 -79 -173 -381 l-149 -370 -143 361 c-162 410 -174 430 -236 375z"/>
<path d="M5895 1518 c-3 -7 -6 -47 -7 -88 l-3 -75 -40 -3 c-50 -4 -65 -17 -65
-53 0 -34 23 -49 74 -49 l36 0 0 -155 c0 -174 8 -203 62 -231 67 -34 169 11
154 69 -8 32 -39 42 -78 26 -25 -10 -31 -10 -39 2 -5 8 -9 76 -9 152 l0 137
53 0 c61 0 97 20 97 54 0 34 -18 45 -85 48 l-60 3 -3 75 c-2 41 -8 80 -14 87
-13 17 -67 17 -73 1z"/>
<path d="M2477 1346 c-94 -34 -156 -116 -164 -219 -6 -76 8 -131 47 -185 83
-116 268 -136 382 -42 115 95 117 301 5 396 -73 61 -181 81 -270 50z m156
-100 c103 -43 128 -177 48 -257 -65 -65 -157 -65 -222 0 -124 123 13 325 174
257z"/>
<path d="M3018 1340 c-31 -17 -38 -17 -48 -5 -15 18 -52 19 -68 3 -17 -17 -17
-459 0 -476 15 -15 51 -15 66 0 8 8 12 54 12 142 0 72 5 148 10 168 21 76 104
110 171 71 47 -28 59 -75 59 -231 0 -145 5 -162 46 -162 42 0 45 18 42 203 -3
173 -3 174 -32 215 -56 81 -178 115 -258 72z"/>
<path d="M3535 1345 c-99 -37 -167 -136 -166 -243 0 -110 50 -188 148 -234 54
-25 73 -30 121 -26 66 5 143 40 178 81 29 35 30 51 3 78 -24 24 -48 19 -99
-22 -45 -36 -77 -43 -131 -29 -50 14 -109 68 -109 100 l0 23 148 -6 c185 -8
232 -1 249 34 28 59 -35 173 -123 225 -56 33 -158 42 -219 19z m142 -96 c29
-11 83 -57 83 -71 0 -4 -61 -8 -135 -8 -74 0 -135 4 -135 8 0 13 53 60 80 71
33 13 73 13 107 0z"/>
<path d="M4574 1340 c-28 -18 -33 -19 -44 -5 -16 20 -54 19 -74 -1 -14 -13
-16 -49 -16 -234 0 -236 3 -250 54 -250 42 0 46 16 46 172 0 159 8 191 52 222
30 21 88 20 114 -2 39 -31 44 -55 44 -211 0 -123 3 -152 16 -165 21 -22 61
-20 74 3 5 11 10 86 10 171 l0 152 34 34 c39 39 85 45 125 18 41 -29 51 -72
51 -227 0 -151 4 -167 46 -167 48 0 54 20 54 178 0 81 -5 163 -10 183 -26 92
-98 149 -188 149 -54 0 -116 -24 -141 -54 -11 -14 -18 -12 -52 16 -34 27 -50
33 -102 35 -50 3 -68 0 -93 -17z"/>
<path d="M5419 1351 c-80 -16 -158 -84 -188 -164 -29 -76 -2 -197 57 -261 70
-75 206 -99 294 -52 l44 23 10 -21 c12 -27 50 -32 75 -10 18 16 19 33 19 234
0 161 -3 221 -13 234 -18 24 -69 18 -81 -10 l-9 -21 -41 23 c-47 25 -114 35
-167 25z m118 -107 c55 -27 87 -77 87 -139 2 -158 -207 -215 -287 -78 -43 75
-13 173 66 212 51 25 87 26 134 5z"/>
<path d="M6327 1346 c-180 -65 -232 -292 -97 -426 85 -86 204 -102 312 -43 59
32 81 61 76 100 -2 23 -8 29 -35 31 -25 2 -43 -5 -74 -30 -35 -28 -49 -33 -94
-33 -39 0 -61 6 -82 21 -34 25 -75 83 -67 95 3 5 88 9 189 9 213 0 221 3 212
76 -13 119 -125 213 -252 213 -27 0 -67 -6 -88 -13z m140 -97 c29 -11 83 -57
83 -71 0 -4 -63 -8 -140 -8 l-141 0 18 25 c22 30 89 65 125 65 15 0 39 -5 55
-11z"/>
<path d="M6769 1336 c-79 -54 -91 -164 -27 -233 20 -22 74 -45 131 -58 68 -14
52 -105 -18 -105 -19 0 -52 7 -74 16 -54 21 -84 6 -79 -39 6 -68 155 -102 238
-56 69 39 100 132 65 198 -21 42 -70 79 -113 86 -59 10 -81 22 -88 51 -15 58
64 86 137 48 46 -24 81 -6 77 39 -2 27 -10 36 -48 55 -63 32 -152 31 -201 -2z"/>
<path d="M3940 1331 c-15 -29 -12 -298 4 -344 44 -122 184 -183 289 -127 l37
20 0 -32 c0 -53 -38 -117 -89 -150 -42 -27 -52 -29 -112 -25 -81 5 -99 -3 -99
-47 0 -46 36 -60 134 -54 87 6 144 34 200 100 60 69 66 108 66 398 0 186 -3
259 -12 268 -19 19 -66 15 -78 -7 -5 -11 -10 -83 -10 -161 0 -106 -4 -148 -15
-170 -30 -58 -119 -79 -169 -39 -49 39 -56 66 -56 222 0 98 -4 147 -12 155
-19 19 -66 15 -78 -7z"/>
</g>
</svg>
