<?xml version="1.0" standalone="no"?>
<!DOCTYPE svg PUBLIC "-//W3C//DTD SVG 20010904//EN"
 "http://www.w3.org/TR/2001/REC-SVG-20010904/DTD/svg10.dtd">
<svg version="1.0" xmlns="http://www.w3.org/2000/svg"
 width="182.000000pt" height="135.000000pt" viewBox="0 0 182.000000 135.000000"
 preserveAspectRatio="xMidYMid meet">

<g transform="translate(0.000000,135.000000) scale(0.100000,-0.100000)"
fill="#000000" stroke="none">
<path d="M528 1293 c-9 -10 -120 -281 -248 -603 -257 -649 -253 -632 -172
-638 51 -4 31 -44 214 415 73 183 135 333 138 333 3 0 67 -163 144 -363 76
-199 143 -368 149 -374 5 -7 25 -13 43 -13 25 0 38 7 50 25 16 25 13 36 -146
447 -89 231 -165 429 -167 439 -3 11 5 44 17 75 l23 56 202 -505 c111 -279
208 -513 215 -522 15 -18 71 -20 88 -3 21 21 13 59 -40 192 -28 72 -51 136
-51 142 0 22 157 404 164 397 3 -5 66 -163 139 -353 73 -190 138 -355 146
-367 10 -16 24 -23 47 -23 40 0 57 15 57 49 -1 15 -74 217 -164 451 l-164 425
20 50 c22 55 29 65 35 50 2 -5 95 -237 206 -515 l202 -505 38 -3 c44 -4 67 11
67 42 0 27 -458 1175 -479 1199 -10 12 -26 17 -50 15 l-36 -3 -150 -372 -150
-371 -142 356 c-78 196 -146 365 -152 374 -15 24 -73 24 -93 1z"/>
</g>
</svg>
